<svg id="Capa_1" enable-background="new 0 0 512 512" height="512" viewBox="0 0 512 512" width="512" xmlns="http://www.w3.org/2000/svg"><g><g><path d="m351.548 369.812c-2.705 0-5.364-.731-7.693-2.123l-163.697-97.796c-2.52-1.506-4.543-3.718-5.818-6.362-12.327-25.565-18.577-53.017-18.577-81.591 0-84.769 57.221-159.372 139.149-181.423 5.763-1.551 11.888.459 15.611 5.114 3.726 4.656 4.339 11.076 1.562 16.354-12.05 22.906-18.159 47.609-18.159 73.425 0 87.155 70.905 158.062 158.061 158.062 13.457 0 27.29-1.887 41.115-5.607 5.758-1.552 11.887.458 15.611 5.114 3.726 4.656 4.339 11.076 1.562 16.354-15.064 28.636-37.394 53.064-64.575 70.643-27.903 18.047-60.232 28.359-93.493 29.823-.22.008-.44.013-.659.013z" fill="#fff58c"/><path d="m510.275 269.331c2.776-5.277 2.163-11.697-1.562-16.353s-9.854-6.666-15.611-5.114c-13.825 3.721-27.658 5.607-41.115 5.607-49.062 0-92.973-22.47-121.986-57.657l-102.415 102.413 116.268 69.461c2.329 1.392 4.988 2.123 7.693 2.123.22 0 .439-.005.659-.015 33.261-1.464 65.59-11.776 93.493-29.823 27.183-17.577 49.512-42.006 64.576-70.642z" fill="#ffc85a"/></g><g><g><g><path d="m415 147c0 8.284 6.716 15 15 15s15-6.716 15-15v-10h10c8.284 0 15-6.716 15-15s-6.716-15-15-15h-10v-10c0-8.284-6.716-15-15-15s-15 6.716-15 15v10h-10c-8.284 0-15 6.716-15 15s6.716 15 15 15h10z" fill="#ffc85a"/><path d="m105 45h-10v-10c0-8.284-6.716-15-15-15s-15 6.716-15 15v10h-10c-8.284 0-15 6.716-15 15s6.716 15 15 15h10v10c0 8.284 6.716 15 15 15s15-6.716 15-15v-10h10c8.284 0 15-6.716 15-15s-6.716-15-15-15z" fill="#fff58c"/><path d="m477 427h-10v-10c0-8.284-6.716-15-15-15s-15 6.716-15 15v10h-10c-8.284 0-15 6.716-15 15s6.716 15 15 15h10v10c0 8.284 6.716 15 15 15s15-6.716 15-15v-10h10c8.284 0 15-6.716 15-15s-6.716-15-15-15z" fill="#ffc85a"/></g><path d="m291 512h-204c-47.972 0-87-39.028-87-87 0-47.097 37.612-85.572 84.379-86.961 4.56-53.719 49.742-96.039 104.621-96.039 45.728 0 85.668 29.576 99.662 72.032.785-.021 1.564-.032 2.338-.032 54.589 0 99 44.411 99 99s-44.411 99-99 99z" fill="#f0f9ff"/></g><path d="m291 314c-.773 0-1.553.011-2.338.032-13.378-40.586-50.472-69.382-93.662-71.841v269.809h96c54.589 0 99-44.411 99-99s-44.411-99-99-99z" fill="#d9f1fb"/></g></g></svg>